<svg width="36" height="36" viewBox="0 0 36 36" fill="none" xmlns="http://www.w3.org/2000/svg">
<path d="M31.605 25.245L28.5 22.065C27.8321 21.4302 26.9896 21.0095 26.0808 20.8572C25.172 20.7048 24.2384 20.8277 23.4 21.21L22.05 19.86C23.6408 17.7344 24.3673 15.0851 24.0833 12.4453C23.7993 9.80553 22.5257 7.37137 20.5191 5.63283C18.5125 3.8943 15.9218 2.98047 13.2685 3.07531C10.6152 3.17015 8.09631 4.26662 6.21894 6.14399C4.34157 8.02136 3.2451 10.5402 3.15026 13.1935C3.05542 15.8468 3.96925 18.4376 5.70778 20.4442C7.44632 22.4508 9.88048 23.7243 12.5202 24.0083C15.16 24.2924 17.8094 23.5659 19.935 21.975L21.27 23.31C20.8426 24.1495 20.6895 25.1019 20.8321 26.033C20.9747 26.9641 21.4059 27.827 22.065 28.5L25.245 31.68C26.0887 32.5227 27.2325 32.9961 28.425 32.9961C29.6175 32.9961 30.7612 32.5227 31.605 31.68C32.0336 31.2609 32.3741 30.7604 32.6067 30.2079C32.8392 29.6554 32.9589 29.062 32.9589 28.4625C32.9589 27.8631 32.8392 27.2697 32.6067 26.7172C32.3741 26.1646 32.0336 25.6641 31.605 25.245V25.245ZM18.885 18.885C17.8353 19.932 16.4989 20.6445 15.0446 20.9323C13.5903 21.2202 12.0832 21.0705 10.7139 20.5023C9.34455 19.9341 8.17433 18.9728 7.35105 17.7398C6.52778 16.5069 6.08839 15.0576 6.08839 13.575C6.08839 12.0925 6.52778 10.6432 7.35105 9.41023C8.17433 8.17727 9.34455 7.21597 10.7139 6.64775C12.0832 6.07954 13.5903 5.92991 15.0446 6.21776C16.4989 6.50561 17.8353 7.21804 18.885 8.26503C19.5834 8.96172 20.1376 9.78935 20.5157 10.7005C20.8938 11.6117 21.0884 12.5885 21.0884 13.575C21.0884 14.5615 20.8938 15.5384 20.5157 16.4495C20.1376 17.3607 19.5834 18.1883 18.885 18.885V18.885ZM29.49 29.49C29.3505 29.6306 29.1846 29.7422 29.0018 29.8184C28.8191 29.8945 28.623 29.9337 28.425 29.9337C28.227 29.9337 28.0309 29.8945 27.8481 29.8184C27.6653 29.7422 27.4994 29.6306 27.36 29.49L24.18 26.31C24.0394 26.1706 23.9278 26.0047 23.8516 25.8219C23.7755 25.6391 23.7363 25.4431 23.7363 25.245C23.7363 25.047 23.7755 24.851 23.8516 24.6682C23.9278 24.4854 24.0394 24.3195 24.18 24.18C24.3194 24.0394 24.4853 23.9279 24.6681 23.8517C24.8509 23.7755 25.047 23.7363 25.245 23.7363C25.443 23.7363 25.6391 23.7755 25.8219 23.8517C26.0046 23.9279 26.1705 24.0394 26.31 24.18L29.49 27.36C29.6306 27.4995 29.7422 27.6654 29.8183 27.8482C29.8945 28.031 29.9337 28.227 29.9337 28.425C29.9337 28.6231 29.8945 28.8191 29.8183 29.0019C29.7422 29.1847 29.6306 29.3506 29.49 29.49V29.49Z" fill="#FF3939"/>
</svg>
